# xmcd CD database file
#
# Track frame offsets:
#	150
#	22985
#	46768
#	71506
#	89533
#	112689
#	131464
#
# Disc length: 2082 seconds
#
# Revision: 0
# Processed by: cddbd v1.5.1PL2 Copyright (c) Steve Scherf et al.
# Submitted via: CDex 1.51
#
DISCID=4c082007
DTITLE=Skii - Uncompressing
DYEAR=2005
DGENRE=Jazz
TTITLE0=How Long?
TTITLE1=Misdemeanor
TTITLE2=Those Eyes
TTITLE3=No Sir-ee
TTITLE4=Sweet Was The Night
TTITLE5=Nothin' Beats The Truth
TTITLE6=Let Go
EXTD=YEAR: 2005
EXTT0=
EXTT1=
EXTT2=
EXTT3=
EXTT4=
EXTT5=
EXTT6=
PLAYORDER=
